<svg width="183" height="168" viewBox="0 0 183 168" fill="none"
    xmlns="http://www.w3.org/2000/svg">
    <path d="M116.907 41.8952L116.907 88.9292L5.10062 51.1982C2.06013 50.1716 -1.30022e-05 47.3022 -1.28619e-05 44.0929L-1.12618e-05 7.48793C-1.10823e-05 3.38038 3.37921 -4.96258e-06 7.48677 -4.78303e-06C8.30065 -4.74746e-06 9.10874 0.132944 9.87985 0.393062L111.807 34.7888C114.848 35.8142 116.91 38.6848 116.91 41.8952L116.907 41.8952Z" fill="url(#paint0_linear_111_17815)"/>
    <path d="M65.8849 41.8952L65.8849 88.9292L177.692 51.1982C180.732 50.1716 182.792 47.3022 182.792 44.0929L182.792 7.48794C182.792 3.38039 179.413 4.96258e-06 175.306 4.78303e-06C174.492 4.74746e-06 173.684 0.132954 172.913 0.393072L70.9855 34.7888C67.9439 35.8142 65.8826 38.6848 65.8826 41.8952L65.8849 41.8952Z" fill="url(#paint1_linear_111_17815)"/>
    <path d="M65.1304 18.2299H112.164L63.3385 162.897C62.3119 165.938 59.4425 167.998 56.2332 167.998H19.6282C15.5206 167.998 12.1403 164.619 12.1403 160.511C12.1403 159.697 12.2732 158.889 12.5333 158.118L58.024 23.3316C59.0494 20.2888 61.92 18.2287 65.1304 18.2275V18.2299Z" fill="url(#paint2_linear_111_17815)"/>
    <path d="M64.9585 18.1373C61.7099 18.1246 58.8128 20.2402 57.8359 23.3374L12.4181 157.902C12.1267 158.712 11.9788 159.567 11.9788 160.428C11.9788 164.53 15.3545 167.905 19.4574 167.905C19.4632 167.905 61.4937 167.849 61.4995 167.849L91.79 78.1749C115.803 70.2118 129.149 66.0893 129.149 66.0893L112.162 18.1373H64.9585Z" fill="url(#paint3_linear_111_17815)"/>
    <path d="M125.205 23.3234C124.18 20.2864 121.314 18.2297 118.109 18.2297H65.6903C68.895 18.2297 71.7609 20.2876 72.7863 23.3234L118.231 158.172C118.491 158.943 119.065 160.541 119.292 161.329C120.156 164.332 121.924 168.146 127.966 167.975L163.603 168C167.711 167.999 171.09 164.618 171.09 160.511C171.09 159.696 170.957 158.888 170.697 158.116L125.205 23.3234Z" fill="url(#paint4_linear_111_17815)"/>
    <defs>
        <linearGradient id="paint0_linear_111_17815" x1="74.8846" y1="0.000576203" x2="74.8846" y2="100.024" gradientUnits="userSpaceOnUse">
            <stop stop-color="#525252"/>
            <stop offset="1" stop-color="#434343"/>
        </linearGradient>
        <linearGradient id="paint1_linear_111_17815" x1="107.908" y1="0.000579877" x2="107.908" y2="100.024" gradientUnits="userSpaceOnUse">
            <stop stop-color="#1B1B1B"/>
            <stop offset="1" stop-color="#262626"/>
        </linearGradient>
        <linearGradient id="paint2_linear_111_17815" x1="82.2725" y1="29.3282" x2="33.4263" y2="173.633" gradientUnits="userSpaceOnUse">
            <stop stop-color="#1B1B1B"/>
            <stop offset="1" stop-color="#353535"/>
        </linearGradient>
        <linearGradient id="paint3_linear_111_17815" x1="97.359" y1="96.4853" x2="86.0602" y2="100.306" gradientUnits="userSpaceOnUse">
            <stop stop-opacity="0.3"/>
            <stop offset="0.07" stop-opacity="0.2"/>
            <stop offset="0.32" stop-opacity="0.1"/>
            <stop offset="0.62" stop-opacity="0.05"/>
            <stop offset="1" stop-opacity="0"/>
        </linearGradient>
        <linearGradient id="paint4_linear_111_17815" x1="91.3174" y1="25.1193" x2="144.936" y2="167.969" gradientUnits="userSpaceOnUse">
            <stop stop-color="#525252"/>
            <stop offset="1" stop-color="#434343"/>
        </linearGradient>
    </defs>
</svg>